Coordinates
version=1
nRows=38
nColumns=12
inDegrees=yes

Units are S.I. units (second, meters, Newtons, ...)
Angles are in degrees

endheader
time	SC_y	SC_z	SC_x	AC_y	AC_z	AC_x	GH_y	GH_z	GH_yy	EL_x	PS_y
       0.0              -28.69          10.37          32.56          44.14          7.745           -5.5         -17.26         -13.05         -45.81          99.65           68.2
   0.02382              -28.69          10.37          32.57          44.14          7.744         -5.499         -17.27         -13.04          -45.8          99.65           68.2
   0.04763              -28.69          10.37          32.58          44.14          7.743         -5.497         -17.28         -13.03         -45.79          99.65           68.2
   0.07145              -28.69          10.37          32.59          44.14          7.742         -5.496          -17.3         -13.03         -45.78          99.64          68.19
   0.09526              -28.69          10.37          32.59          44.14           7.74         -5.495         -17.31         -13.02         -45.77          99.64          68.19
    0.1191              -28.69          10.37           32.6          44.14          7.739         -5.493         -17.33         -13.01         -45.76          99.64          68.19
    0.1429              -28.69          10.37          32.61          44.14          7.737         -5.492         -17.35         -13.01         -45.74          99.63          68.19
    0.1667              -28.69          10.37          32.63          44.14          7.736          -5.49         -17.37          -13.0         -45.73          99.63          68.19
    0.1905              -28.69          10.38          32.64          44.14          7.734         -5.488         -17.39         -12.99         -45.72          99.62          68.19
    0.2143              -28.69          10.38          32.65          44.14          7.732         -5.487         -17.41         -12.98          -45.7          99.62          68.19
    0.2382              -28.69          10.38          32.66          44.14           7.73         -5.485         -17.44         -12.97         -45.68          99.61          68.19
     0.262              -28.69          10.38          32.68          44.15          7.728         -5.482         -17.46         -12.95         -45.66          99.61          68.19
    0.2858              -28.69          10.38          32.69          44.15          7.726          -5.48         -17.49         -12.94         -45.64           99.6          68.18
    0.3096              -28.69          10.38          32.71          44.15          7.724         -5.478         -17.52         -12.93         -45.62           99.6          68.18
    0.3334              -28.69          10.38          32.73          44.15          7.721         -5.475         -17.55         -12.91          -45.6          99.59          68.18
    0.3572              -28.69          10.38          32.75          44.15          7.718         -5.472         -17.58          -12.9         -45.57          99.58          68.18
    0.3811               -28.7          10.38          32.77          44.15          7.715         -5.469         -17.62         -12.88         -45.55          99.57          68.18
    0.4049               -28.7          10.38           32.8          44.15          7.711         -5.465         -17.66         -12.86         -45.51          99.57          68.17
    0.4287               -28.7          10.39          32.82          44.16          7.708         -5.461         -17.71         -12.84         -45.48          99.56          68.17
    0.4525               -28.7          10.39          32.85          44.16          7.704         -5.457         -17.76         -12.82         -45.45          99.55          68.17
    0.4763               -28.7          10.39          32.88          44.16          7.699         -5.453         -17.81         -12.79         -45.41          99.53          68.16
    0.5001               -28.7          10.39          32.92          44.16          7.694         -5.448         -17.87         -12.77         -45.36          99.52          68.16
     0.524               -28.7          10.39          32.95          44.17          7.689         -5.442         -17.94         -12.74         -45.31          99.51          68.16
    0.5478               -28.7           10.4           33.0          44.17          7.683         -5.436         -18.01          -12.7         -45.26          99.49          68.15
    0.5716              -28.71           10.4          33.04          44.17          7.676         -5.429         -18.09         -12.67          -45.2          99.48          68.15
    0.5954              -28.71           10.4           33.1          44.18          7.669         -5.421         -18.18         -12.63         -45.14          99.46          68.14
    0.6192              -28.71           10.4          33.15          44.18           7.66         -5.413         -18.28         -12.58         -45.06          99.44          68.14
     0.643              -28.71          10.41          33.22          44.19          7.651         -5.403          -18.4         -12.53         -44.98          99.41          68.13
    0.6669              -28.71          10.41           33.3          44.19           7.64         -5.392         -18.53         -12.47         -44.88          99.38          68.12
    0.6907              -28.72          10.42          33.38           44.2          7.628          -5.38         -18.67          -12.4         -44.78          99.35          68.11
    0.7145              -28.72          10.42          33.48           44.2          7.614         -5.366         -18.84         -12.33         -44.66          99.32           68.1
    0.7383              -28.73          10.43          33.59          44.21          7.598         -5.349         -19.03         -12.24         -44.52          99.28          68.09
    0.7621              -28.73          10.44          33.72          44.22           7.58         -5.331         -19.25         -12.14         -44.35          99.23          68.08
    0.7859              -28.74          10.44          33.86          44.23          7.559         -5.309         -19.51         -12.02         -44.17          99.18          68.06
    0.8097              -28.74          10.45          34.04          44.24          7.534         -5.283         -19.81         -11.89         -43.95          99.11          68.04
    0.8336              -28.75          10.46          34.24          44.26          7.505         -5.253         -20.16         -11.72         -43.69          99.04          68.02
    0.8574              -28.76          10.48          34.49          44.28           7.47         -5.218         -20.59         -11.53         -43.38          98.95           68.0
    0.8812              -28.77          10.49          34.78           44.3          7.428         -5.175         -21.09          -11.3         -43.01          98.84          67.97
